# Blender 4.5.0
# www.blender.org
o Cube
v 1.000000 1.000000 -1.000000
v 1.000000 -1.000000 -1.000000
v 1.000000 1.000000 1.000000
v 1.000000 -1.000000 1.000000
v -1.000000 1.000000 -1.000000
v -1.000000 -1.000000 -1.000000
v -1.000000 1.000000 1.000000
v -1.000000 -1.000000 1.000000
vn -0.0000 1.0000 -0.0000
vn -0.0000 -0.0000 1.0000
vn -1.0000 -0.0000 -0.0000
vn -0.0000 -1.0000 -0.0000
vn 1.0000 -0.0000 -0.0000
vn -0.0000 -0.0000 -1.0000
vt -0.000000 1.00000
vt 0.000000 0.00000
vt 1.000000 0.00000
vt 1.000000 1.00000
vt 1.000000 0.00000
vt 0.00000 1.000000
vt 0.00000 0.00000
vt 1.00000 0.00000
vt 1.00000 1.000000
vt -0.000000 1.000000
vt 0.000000 -0.000000
vt 1.000000 0.000000
vt 1.000000 1.000000
vt 0.000000 0.000000
s 0
f 1/1/1 5/2/1 7/3/1 3/4/1
f 4/1/2 3/2/2 7/5/2 8/4/2
f 8/6/3 7/7/3 5/8/3 6/9/3
f 6/10/4 2/11/4 4/12/4 8/13/4
f 2/1/5 1/14/5 3/5/5 4/4/5
f 6/1/6 5/14/6 1/5/6 2/4/6
